<svg width="80" height="80" viewBox="0 0 80 80" fill="none" xmlns="http://www.w3.org/2000/svg">
<path d="M32.6581 51.1463C25.9717 49.6272 20.7509 44.5708 19.1825 38.0949C18.0498 33.4181 18.0498 28.5509 19.1825 23.8741C20.7509 17.3982 25.9717 12.3418 32.6581 10.8228C37.487 9.72574 42.5124 9.72574 47.3412 10.8228C54.0276 12.3418 59.2484 17.3982 60.8168 23.8741C61.9495 28.5509 61.9495 33.4181 60.8168 38.0949C59.2484 44.5708 54.0276 49.6272 47.3412 51.1463C42.5124 52.2433 37.487 52.2433 32.6581 51.1463C30.234 50.5955 28.0025 49.5799 26.0679 48.2002L22.245 63.223C21.0972 67.7335 25.9221 71.482 30.2193 69.4183L36.662 66.3241C38.7649 65.3142 41.2344 65.3142 43.3374 66.3241L49.78 69.4183C54.0772 71.482 58.9022 67.7335 57.7544 63.223L53.9315 48.2002C51.9968 49.5799 49.7653 50.5955 47.3412 51.1463" stroke="#2D8CFD" style="stroke:#2D8CFD;stroke:color(display-p3 0.1762 0.5484 0.9904);stroke-opacity:1;" stroke-width="4"/>
</svg>
