<svg width="32" height="32" viewBox="0 0 32 32" fill="none" xmlns="http://www.w3.org/2000/svg">
<path d="M15.6424 22.0983C12.794 21.4301 10.5699 19.206 9.90174 16.3576C9.41921 14.3005 9.41921 12.1597 9.90174 10.1025C10.5699 7.25412 12.794 5.03005 15.6424 4.3619C17.6995 3.87937 19.8404 3.87937 21.8975 4.3619C24.7459 5.03005 26.97 7.25413 27.6381 10.1026C28.1206 12.1597 28.1206 14.3005 27.6381 16.3576C26.97 19.206 24.7459 21.4301 21.8974 22.0983C19.8403 22.5808 17.6995 22.5808 15.6424 22.0983ZM9.90174 16.3576C9.59792 15.0624 9.4854 13.7339 9.56417 12.4141C9.45277 12.4368 9.34163 12.4612 9.23076 12.4872C6.78925 13.0599 4.8829 14.9663 4.3102 17.4078C3.8966 19.171 3.8966 21.006 4.3102 22.7692C4.8829 25.2108 6.78925 27.1171 9.23076 27.6898C10.994 28.1034 12.829 28.1034 14.5922 27.6898C17.0337 27.1171 18.9401 25.2108 19.5128 22.7692C19.5388 22.6584 19.5632 22.5472 19.5859 22.4358C18.2661 22.5146 16.9376 22.4021 15.6424 22.0983" stroke="white" stroke-width="2"/>
</svg>
