<svg width="16" height="16" viewBox="0 0 16 16" fill="none" stroke="currentColor" xmlns="http://www.w3.org/2000/svg">
<g clip-path="url(#clip0_2071_9997)">
<path d="M14.6666 8.00016C14.6666 11.6821 11.6818 14.6668 7.99992 14.6668C4.31802 14.6668 1.33325 11.6821 1.33325 8.00016C1.33325 4.31826 4.31802 1.3335 7.99992 1.3335C11.6818 1.3335 14.6666 4.31826 14.6666 8.00016Z" stroke="currentColor" stroke-width="1.5"/>
<path d="M10 9.3335C10 10.0699 9.40305 10.6668 8.66667 10.6668H8C7.37874 10.6668 7.06812 10.6668 6.82309 10.5653C6.49638 10.43 6.23682 10.1704 6.10149 9.84374C6 9.59871 6 9.28809 6 8.66683V7.3335C6 6.71224 6 6.40161 6.10149 6.15658C6.23682 5.82988 6.49638 5.57032 6.82309 5.43499C7.06812 5.3335 7.37874 5.3335 8 5.3335H8.66667C9.40305 5.3335 10 5.93045 10 6.66683" stroke="currentColor" stroke-width="1.5" stroke-linecap="round"/>
</g>
<defs>
<clipPath id="clip0_2071_9997">
<rect width="16" height="16" fill="currentColor"/>
</clipPath>
</defs>
</svg>
