<svg width="30" height="30" viewBox="0 0 30 30" fill="none" xmlns="http://www.w3.org/2000/svg">
<path fill-rule="evenodd" clip-rule="evenodd" d="M7.72727 12.9167C6.50508 12.9167 6.25 13.1565 6.25 14.3056L6.25 16.3889C6.25 17.538 6.50508 17.7778 7.72727 17.7778H10.6818L10.6818 26.1111C10.6818 27.2602 10.9369 27.5 12.1591 27.5L15.1136 27.5C16.3358 27.5 16.5909 27.2602 16.5909 26.1111L16.5909 17.7778L19.9084 17.7778C20.8354 17.7778 21.0742 17.6084 21.3289 16.7704L21.962 14.6871C22.3982 13.2517 22.1294 12.9167 20.5415 12.9167L16.5909 12.9167V9.44444C16.5909 8.67738 17.2523 8.05556 18.0682 8.05556H22.2727C23.4949 8.05556 23.75 7.81574 23.75 6.66667V3.88889C23.75 2.73981 23.4949 2.5 22.2727 2.5L18.0682 2.5C13.9888 2.5 10.6818 5.60913 10.6818 9.44444L10.6818 12.9167L7.72727 12.9167Z" stroke="white" style="stroke:white;stroke-opacity:1;" stroke-width="2" stroke-linejoin="round"/>
</svg>
