<svg width="32" height="32" viewBox="0 0 32 32" fill="none" xmlns="http://www.w3.org/2000/svg">
<path d="M5.33301 14.667V20.0003C5.33301 24.4001 5.79625 25.9668 7.16309 27.3337C8.52992 28.7005 10.2666 29.3337 14.6663 29.3337H17.333C21.7328 29.3337 23.1296 28.7005 24.4964 27.3337C25.8633 25.9668 26.6663 24.4001 26.6663 20.0003V14.667" stroke="#FD990F" style="stroke:#FD990F;stroke:color(display-p3 0.9904 0.6015 0.0571);stroke-opacity:1;" stroke-width="3" stroke-linecap="round" stroke-linejoin="round"/>
<path d="M4 12.0002C4 11.0032 4 10.5048 4.26795 10.1335C4.44349 9.89027 4.69596 9.68828 5 9.54786C5.4641 9.3335 6.08718 9.3335 7.33333 9.3335H24.6667C25.9128 9.3335 26.5359 9.3335 27 9.54786C27.304 9.68828 27.5565 9.89027 27.7321 10.1335C28 10.5048 28 11.0032 28 12.0002C28 12.9971 28 13.4955 27.7321 13.8668C27.5565 14.1101 27.304 14.312 27 14.4525C26.5359 14.6668 25.9128 14.6668 24.6667 14.6668H7.33333C6.08718 14.6668 5.4641 14.6668 5 14.4525C4.69596 14.312 4.44349 14.1101 4.26795 13.8668C4 13.4955 4 12.9971 4 12.0002Z" stroke="#FD990F" style="stroke:#FD990F;stroke:color(display-p3 0.9904 0.6015 0.0571);stroke-opacity:1;" stroke-width="3" stroke-linejoin="round"/>
<path d="M8 5.04794C8 3.73298 9.06599 2.66699 10.381 2.66699H10.8571C13.6975 2.66699 16 4.96953 16 7.80985V9.33366H12.2857C9.91878 9.33366 8 7.41488 8 5.04794Z" stroke="#FD990F" style="stroke:#FD990F;stroke:color(display-p3 0.9904 0.6015 0.0571);stroke-opacity:1;" stroke-width="3" stroke-linejoin="round"/>
<path d="M24 5.04794C24 3.73298 22.934 2.66699 21.619 2.66699H21.1429C18.3025 2.66699 16 4.96953 16 7.80985V9.33366H19.7143C22.0812 9.33366 24 7.41488 24 5.04794Z" stroke="#FD990F" style="stroke:#FD990F;stroke:color(display-p3 0.9904 0.6015 0.0571);stroke-opacity:1;" stroke-width="3" stroke-linejoin="round"/>
<path d="M16 14.667L16 29.3337" stroke="#FD990F" style="stroke:#FD990F;stroke:color(display-p3 0.9904 0.6015 0.0571);stroke-opacity:1;" stroke-width="3" stroke-linecap="round" stroke-linejoin="round"/>
</svg>
