<svg width="80" height="80" viewBox="0 0 80 80" fill="none" xmlns="http://www.w3.org/2000/svg">
<path d="M6.66699 56.736L6.66699 43.4719L6.74824 42.2598C7.79379 26.6617 18.9069 13.7066 33.8866 10.623C37.922 9.79233 42.0787 9.79233 46.114 10.623C61.0938 13.7066 72.2069 26.6617 73.2524 42.2598L73.3337 43.4719L73.3337 56.736M51.9656 59.3372C51.4014 56.3676 51.4014 53.3147 51.9656 50.3451C52.8724 45.5721 56.3272 41.7275 60.8996 40.4032L61.8695 40.1224C62.8776 39.8304 63.9203 39.6823 64.968 39.6823C69.5882 39.6823 73.3336 43.5147 73.3336 48.2422L73.3336 61.4401C73.3336 66.1676 69.5882 70 64.968 70C63.9203 70 62.8776 69.8519 61.8695 69.5599L60.8996 69.279C56.3272 67.9548 52.8724 64.1102 51.9656 59.3372ZM28.035 59.3372C28.5992 56.3676 28.5992 53.3147 28.035 50.3451C27.1282 45.5721 23.6734 41.7275 19.101 40.4032L18.1311 40.1223C17.123 39.8304 16.0803 39.6823 15.0326 39.6823C10.4124 39.6823 6.66699 43.5147 6.66701 48.2422L6.66701 61.4401C6.66698 66.1676 10.4124 70 15.0326 70C16.0803 70 17.123 69.8519 18.1311 69.5599L19.101 69.279C23.6734 67.9548 27.1282 64.1102 28.035 59.3372Z" stroke="#FF4D4D" style="stroke:#FF4D4D;stroke:color(display-p3 1.0000 0.3029 0.3029);stroke-opacity:1;" stroke-width="4"/>
</svg>
