<svg width="80" height="80" viewBox="0 0 80 80" fill="none" xmlns="http://www.w3.org/2000/svg">
<path d="M66.3 32.3968C66.3 31.2922 65.4045 30.3968 64.3 30.3968C63.1954 30.3968 62.3 31.2922 62.3 32.3968L64.3 32.3968L66.3 32.3968ZM17.7 32.3968C17.7 31.2922 16.8045 30.3968 15.7 30.3968C14.5954 30.3968 13.7 31.2922 13.7 32.3968L15.7 32.3968L17.7 32.3968ZM48.3775 69.0237L47.9177 67.0773V67.0773L48.3775 69.0237ZM31.6224 69.0237L32.0823 67.0773V67.0773L31.6224 69.0237ZM49.4281 16.7141L48.0089 18.1233V18.1233L49.4281 16.7141ZM68.5808 38.8415C69.3591 39.6253 70.6254 39.6298 71.4092 38.8516C72.193 38.0733 72.1975 36.807 71.4192 36.0231L70 37.4323L68.5808 38.8415ZM30.5719 16.7141L31.9911 18.1233V18.1233L30.5719 16.7141ZM8.58078 36.0231C7.80251 36.807 7.807 38.0733 8.59081 38.8516C9.37462 39.6298 10.6409 39.6253 11.4192 38.8415L10 37.4323L8.58078 36.0231ZM32.3947 61.0677L30.4291 60.6987V60.6987L32.3947 61.0677ZM32.4592 60.7242L34.4249 61.0932H34.4249L32.4592 60.7242ZM47.5408 60.7242L45.5751 61.0932L45.5751 61.0932L47.5408 60.7242ZM47.6053 61.0677L49.5709 60.6987V60.6987L47.6053 61.0677ZM46.6393 68.5063L44.8333 67.6469H44.8333L46.6393 68.5063ZM44.4441 68.4648C43.9694 69.4622 44.3932 70.6555 45.3906 71.1302C46.388 71.6048 47.5813 71.1811 48.0559 70.1837L46.25 69.3243L44.4441 68.4648ZM33.3607 68.5063L31.5548 69.3657L31.5548 69.3657L33.3607 68.5063ZM31.9441 70.1837C32.4187 71.1811 33.612 71.6048 34.6094 71.1302C35.6068 70.6555 36.0306 69.4622 35.5559 68.4648L33.75 69.3243L31.9441 70.1837ZM37.8702 54.8085L37.3355 52.8813H37.3355L37.8702 54.8085ZM42.1298 54.8085L42.6645 52.8813V52.8813L42.1298 54.8085ZM64.3 32.3968L62.3 32.3968L62.3 48.7913L64.3 48.7913L66.3 48.7913L66.3 32.3968L64.3 32.3968ZM15.7 48.7913L17.7 48.7913L17.7 32.3968L15.7 32.3968L13.7 32.3968L13.7 48.7913L15.7 48.7913ZM48.3775 69.0237L47.9177 67.0773C42.7098 68.3076 37.2901 68.3076 32.0823 67.0773L31.6224 69.0237L31.1626 70.9701C36.9752 72.3433 43.0247 72.3433 48.8373 70.9701L48.3775 69.0237ZM31.6224 69.0237L32.0823 67.0773C23.6659 65.089 17.7 57.522 17.7 48.7913L15.7 48.7913L13.7 48.7913C13.7 59.3587 20.9235 68.5513 31.1626 70.9701L31.6224 69.0237ZM48.3775 69.0237L48.8373 70.9701C59.0764 68.5513 66.3 59.3587 66.3 48.7913L64.3 48.7913L62.3 48.7913C62.3 57.522 56.3341 65.089 47.9177 67.0773L48.3775 69.0237ZM49.4281 16.7141L48.0089 18.1233L68.5808 38.8415L70 37.4323L71.4192 36.0231L50.8473 15.3049L49.4281 16.7141ZM30.5719 16.7141L29.1527 15.3049L8.58078 36.0231L10 37.4323L11.4192 38.8415L31.9911 18.1233L30.5719 16.7141ZM49.4281 16.7141L50.8473 15.3049C48.665 13.1071 46.8893 11.3127 45.3015 10.0926C43.6681 8.83754 41.9982 8 40 8L40 10L40 12C40.7632 12 41.5851 12.2815 42.8643 13.2644C44.1891 14.2823 45.7467 15.845 48.0089 18.1233L49.4281 16.7141ZM30.5719 16.7141L31.9911 18.1233C34.2533 15.845 35.8109 14.2823 37.1357 13.2644C38.4149 12.2815 39.2368 12 40 12L40 10L40 8C38.0018 8 36.3319 8.83754 34.6985 10.0926C33.1107 11.3127 31.335 13.1071 29.1527 15.3049L30.5719 16.7141ZM32.3947 61.0677L34.3604 61.4366L34.4249 61.0932L32.4592 60.7242L30.4935 60.3553L30.4291 60.6987L32.3947 61.0677ZM47.5408 60.7242L45.5751 61.0932L45.6396 61.4366L47.6053 61.0677L49.5709 60.6987L49.5065 60.3553L47.5408 60.7242ZM46.6393 68.5063L44.8333 67.6469L44.4441 68.4648L46.25 69.3243L48.0559 70.1837L48.4452 69.3657L46.6393 68.5063ZM33.3607 68.5063L31.5548 69.3657L31.9441 70.1837L33.75 69.3243L35.5559 68.4648L35.1667 67.6469L33.3607 68.5063ZM47.6053 61.0677L45.6396 61.4366C46.0346 63.5409 45.7518 65.717 44.8333 67.6469L46.6393 68.5063L48.4452 69.3657C49.7278 66.6704 50.1219 63.6342 49.5709 60.6987L47.6053 61.0677ZM32.3947 61.0677L30.4291 60.6987C29.8781 63.6341 30.2721 66.6704 31.5548 69.3657L33.3607 68.5063L35.1667 67.6469C34.2482 65.717 33.9654 63.5409 34.3604 61.4366L32.3947 61.0677ZM37.8702 54.8085L38.4049 56.7357C39.4489 56.446 40.551 56.446 41.5951 56.7357L42.1298 54.8085L42.6645 52.8813C40.9207 52.3975 39.0792 52.3975 37.3355 52.8813L37.8702 54.8085ZM47.5408 60.7242L49.5065 60.3553C48.8319 56.7613 46.1824 53.8574 42.6645 52.8813L42.1298 54.8085L41.5951 56.7357C43.6307 57.3005 45.1797 58.9867 45.5751 61.0932L47.5408 60.7242ZM32.4592 60.7242L34.4249 61.0932C34.8203 58.9867 36.3693 57.3005 38.4049 56.7357L37.8702 54.8085L37.3355 52.8813C33.8176 53.8574 31.1681 56.7613 30.4935 60.3553L32.4592 60.7242Z" fill="#2BF5AF" style="fill:#2BF5AF;fill:color(display-p3 0.1686 0.9608 0.6863);fill-opacity:1;"/>
</svg>
