<svg width="20" height="20" viewBox="0 0 20 20" fill="none" xmlns="http://www.w3.org/2000/svg">
<path d="M17.79 7.46903C17.79 7.05482 17.4542 6.71903 17.04 6.71903C16.6258 6.71903 16.29 7.05482 16.29 7.46903H17.04H17.79ZM3.20999 7.46903C3.20999 7.05482 2.87421 6.71903 2.45999 6.71903C2.04578 6.71903 1.70999 7.05482 1.70999 7.46903H2.45999H3.20999ZM12.2632 18.4571L12.0908 17.7272V17.7272L12.2632 18.4571ZM7.23673 18.4571L7.40916 17.7272V17.7272L7.23673 18.4571ZM12.5784 2.76423L12.0462 3.29267V3.29267L12.5784 2.76423ZM18.2178 9.50815C18.5096 9.80208 18.9845 9.80376 19.2784 9.51191C19.5724 9.22006 19.5741 8.74518 19.2822 8.45126L18.75 8.9797L18.2178 9.50815ZM6.92157 2.76423L7.45378 3.29267V3.29267L6.92157 2.76423ZM0.217794 8.45126C-0.0740597 8.74518 -0.0723766 9.22006 0.221553 9.51191C0.515482 9.80376 0.990353 9.80208 1.28221 9.50815L0.75 8.9797L0.217794 8.45126ZM7.46842 16.0703L6.7313 15.9319L6.7313 15.9319L7.46842 16.0703ZM7.48776 15.9673L8.22489 16.1056L8.22489 16.1056L7.48776 15.9673ZM12.0122 15.9673L11.2751 16.1056V16.1056L12.0122 15.9673ZM12.0316 16.0703L12.7687 15.9319V15.9319L12.0316 16.0703ZM11.7418 18.3019L11.0646 17.9796V17.9796L11.7418 18.3019ZM10.9478 18.225C10.7698 18.599 10.9287 19.0465 11.3027 19.2245C11.6767 19.4025 12.1242 19.2436 12.3022 18.8696L11.625 18.5473L10.9478 18.225ZM7.75822 18.3019L7.081 18.6242L7.081 18.6242L7.75822 18.3019ZM7.19778 18.8696C7.37577 19.2436 7.82327 19.4025 8.19729 19.2245C8.57131 19.0465 8.73022 18.599 8.55222 18.225L7.875 18.5473L7.19778 18.8696ZM9.11106 14.1926L8.91053 13.4699H8.91053L9.11106 14.1926ZM10.3889 14.1926L10.5895 13.4699H10.5895L10.3889 14.1926ZM17.04 7.46903H16.29V12.3874H17.04H17.79V7.46903H17.04ZM2.45999 12.3874H3.20999V7.46903H2.45999H1.70999V12.3874H2.45999ZM12.2632 18.4571L12.0908 17.7272C10.5511 18.0909 8.94884 18.0909 7.40916 17.7272L7.23673 18.4571L7.0643 19.187C8.83076 19.6043 10.6692 19.6043 12.4357 19.187L12.2632 18.4571ZM7.23673 18.4571L7.40916 17.7272C4.9526 17.1469 3.20999 14.9377 3.20999 12.3874H2.45999H1.70999C1.70999 15.6265 3.92421 18.4452 7.0643 19.187L7.23673 18.4571ZM12.2632 18.4571L12.4357 19.187C15.5758 18.4452 17.79 15.6265 17.79 12.3874H17.04H16.29C16.29 14.9377 14.5474 17.1469 12.0908 17.7272L12.2632 18.4571ZM12.5784 2.76423L12.0462 3.29267L18.2178 9.50815L18.75 8.9797L19.2822 8.45126L13.1106 2.23578L12.5784 2.76423ZM6.92157 2.76423L6.38937 2.23578L0.217794 8.45126L0.75 8.9797L1.28221 9.50815L7.45378 3.29267L6.92157 2.76423ZM12.5784 2.76423L13.1106 2.23578C12.4589 1.57945 11.9181 1.03246 11.4318 0.658851C10.9285 0.272114 10.3958 0 9.75 0V0.75V1.5C9.93265 1.5 10.1474 1.56359 10.5179 1.84826C10.9055 2.14606 11.3646 2.60618 12.0462 3.29267L12.5784 2.76423ZM6.92157 2.76423L7.45378 3.29267C8.13542 2.60618 8.59454 2.14606 8.9821 1.84826C9.35257 1.56359 9.56734 1.5 9.75 1.5V0.75V0C9.10423 0 8.57145 0.272114 8.06815 0.658851C7.58194 1.03246 7.04106 1.57945 6.38937 2.23578L6.92157 2.76423ZM7.46842 16.0703L8.20555 16.2087L8.22489 16.1056L7.48776 15.9673L6.75064 15.8289L6.7313 15.9319L7.46842 16.0703ZM12.0122 15.9673L11.2751 16.1056L11.2945 16.2087L12.0316 16.0703L12.7687 15.9319L12.7494 15.8289L12.0122 15.9673ZM11.7418 18.3019L11.0646 17.9796L10.9478 18.225L11.625 18.5473L12.3022 18.8696L12.419 18.6242L11.7418 18.3019ZM7.75822 18.3019L7.081 18.6242L7.19778 18.8696L7.875 18.5473L8.55222 18.225L8.43545 17.9796L7.75822 18.3019ZM12.0316 16.0703L11.2945 16.2087C11.4071 16.8088 11.3264 17.4293 11.0646 17.9796L11.7418 18.3019L12.419 18.6242C12.8175 17.7869 12.9399 16.8437 12.7687 15.9319L12.0316 16.0703ZM7.46842 16.0703L6.7313 15.9319C6.56015 16.8437 6.68254 17.7869 7.081 18.6242L7.75822 18.3019L8.43545 17.9796C8.17358 17.4293 8.0929 16.8088 8.20555 16.2087L7.46842 16.0703ZM9.11106 14.1926L9.31158 14.9152C9.59855 14.8356 9.90145 14.8356 10.1884 14.9152L10.3889 14.1926L10.5895 13.4699C10.0401 13.3174 9.45991 13.3174 8.91053 13.4699L9.11106 14.1926ZM12.0122 15.9673L12.7494 15.8289C12.5365 14.6949 11.7004 13.7781 10.5895 13.4699L10.3889 14.1926L10.1884 14.9152C10.7435 15.0693 11.167 15.5294 11.2751 16.1056L12.0122 15.9673ZM7.48776 15.9673L8.22489 16.1056C8.33304 15.5294 8.75647 15.0693 9.31158 14.9152L9.11106 14.1926L8.91053 13.4699C7.79959 13.7781 6.96349 14.6949 6.75064 15.8289L7.48776 15.9673Z" fill="#B337AA" style="fill:#B337AA;fill:color(display-p3 0.7020 0.2157 0.6667);fill-opacity:1;"/>
</svg>
