<svg width="179" height="66" fill="none" xmlns="http://www.w3.org/2000/svg" >
<symbol viewBox="0 0 179 66" id="logo" style="fill:#fff">
<path d="M2.75149 42.0888C4.11887 41.5081 5.13289 41.0344 5.79354 40.6676C6.46955 40.3009 6.93047 39.957 7.17629 39.6361C7.42211 39.3152 7.54503 38.9331 7.54503 38.49H6.04705C5.12521 38.49 4.2802 38.2837 3.512 37.8711C2.7438 37.4585 2.12925 36.893 1.66833 36.1748C1.22278 35.4413 1 34.6237 1 33.7221C1 32.8052 1.22278 31.9647 1.66833 31.2006C2.12925 30.4365 2.7438 29.8329 3.512 29.3897C4.2802 28.9312 5.12521 28.702 6.04705 28.702C6.93815 28.702 7.75244 28.9312 8.48991 29.3897C9.22738 29.8329 9.80352 30.4365 10.2183 31.2006C10.6332 31.9647 10.8406 32.8052 10.8406 33.7221V37.0688C10.8406 38.49 10.6178 39.6361 10.1723 40.5072C9.74207 41.3935 9.03533 42.1576 8.05204 42.7994C7.08411 43.4565 5.66295 44.1901 3.78855 45L2.75149 42.0888ZM6.04705 35.235H7.54503V33.6991C7.54503 33.256 7.39907 32.8892 7.10715 32.5989C6.8306 32.3085 6.47723 32.1633 6.04705 32.1633C5.60149 32.1633 5.22508 32.3085 4.9178 32.5989C4.62588 32.8892 4.47993 33.256 4.47993 33.6991C4.47993 34.1423 4.62588 34.5091 4.9178 34.7994C5.22508 35.0898 5.60149 35.235 6.04705 35.235ZM10.6793 35.0287H11.7855C11.9391 35.0287 12.0159 35.1051 12.0159 35.2579V38.2607C12.0159 38.4136 11.9391 38.49 11.7855 38.49H10.6793V35.0287Z" fill="white"/>
<path d="M23.6015 38.49C22.4339 38.49 21.5274 38.085 20.8821 37.2751C20.2368 36.4499 19.9142 35.4107 19.9142 34.1576V29.9398H22.5644V33.9513C22.5644 34.2569 22.6643 34.5167 22.864 34.7307C23.0638 34.9293 23.3096 35.0287 23.6015 35.0287H24.4312V29.2521H27.7498V38.49H23.6015ZM11.779 38.49C11.6253 38.49 11.5485 38.4136 11.5485 38.2607V35.2579C11.5485 35.1051 11.6253 35.0287 11.779 35.0287H12.7469C13.0542 35.0287 13.3077 34.9293 13.5074 34.7307C13.7225 34.5167 13.8301 34.2569 13.8301 33.9513V29.9398H16.4803V34.1576C16.4803 35.4107 16.15 36.4499 15.4894 37.2751C14.8441 38.085 13.9299 38.49 12.7469 38.49H11.779ZM18.1857 38.5358C17.0181 38.5358 16.1039 38.1308 15.4433 37.3209C14.798 36.4957 14.4754 35.4565 14.4754 34.2034V29.9398H17.1256V33.9971C17.1256 34.3028 17.2255 34.5626 17.4252 34.7765C17.625 34.9752 17.8785 35.0745 18.1857 35.0745C18.493 35.0745 18.7465 34.9752 18.9462 34.7765C19.146 34.5626 19.2458 34.3028 19.2458 33.9971V29.9398H21.8961V34.2034C21.8961 35.4565 21.5658 36.4957 20.9051 37.3209C20.2599 38.1308 19.3534 38.5358 18.1857 38.5358ZM17.333 25.1261H20.2829V28.0602H17.333V25.1261ZM21.4813 25.1261H24.4542V28.0602H21.4813V25.1261ZM19.4302 21H22.3801V23.957H19.4302V21Z" fill="white"/>
<path d="M36.9366 42.5244C35.5999 42.5244 34.3632 42.1882 33.2262 41.5158C32.0893 40.8586 31.1828 39.9647 30.5068 38.8338C29.8462 37.703 29.5158 36.4728 29.5158 35.1433V30.8567H32.8344V34.9599C32.8344 35.6934 33.0188 36.3734 33.3875 37C33.7563 37.6266 34.2556 38.1232 34.8855 38.49C35.5154 38.8567 36.1991 39.0401 36.9366 39.0401C37.6894 39.0401 38.3808 38.8567 39.0107 38.49C39.656 38.1232 40.163 37.6266 40.5318 37C40.9005 36.3734 41.0849 35.6934 41.0849 34.9599V29.9398H44.4035V35.1433C44.4035 36.4728 44.0655 37.703 43.3895 38.8338C42.7288 39.9647 41.8223 40.8586 40.67 41.5158C39.5331 42.1882 38.2886 42.5244 36.9366 42.5244ZM35.3925 27.808H38.3655V30.7421H35.3925V27.808Z" fill="white"/>
<path d="M50.6377 38.49C49.8388 38.49 49.109 38.2989 48.4484 37.9169C47.7877 37.5196 47.2654 36.9924 46.8813 36.3352C46.4972 35.6628 46.3051 34.937 46.3051 34.1576V23.0401H49.6237V33.9513C49.6237 34.2569 49.7236 34.5167 49.9233 34.7307C50.123 34.9293 50.3689 35.0287 50.6608 35.0287H51.9283C52.0819 35.0287 52.1588 35.1051 52.1588 35.2579V38.2607C52.1588 38.4136 52.0819 38.49 51.9283 38.49H50.6377Z" fill="white"/>
<path d="M59.3039 38.5358C58.3974 38.5358 57.5754 38.3142 56.838 37.8711C56.1159 37.4126 55.5474 36.8013 55.1326 36.0372C54.7178 35.2732 54.5103 34.4327 54.5103 33.5158V32.0258H53.0815V28.7479H59.3039C60.2257 28.7479 61.0707 28.9542 61.8389 29.3668C62.6071 29.7794 63.214 30.3524 63.6595 31.086C64.1205 31.8042 64.3509 32.6141 64.3509 33.5158C64.3509 34.4174 64.1205 35.2579 63.6595 36.0372C63.214 36.8013 62.5994 37.4126 61.8159 37.8711C61.0477 38.3142 60.2104 38.5358 59.3039 38.5358ZM51.9283 38.49C51.7747 38.49 51.6987 38.4136 51.6987 38.2607V35.2579C51.6987 35.1051 51.7747 35.0287 51.9283 35.0287H53.4502C53.7421 35.0287 53.988 34.9293 54.1877 34.7307C54.4028 34.5167 54.5103 34.2569 54.5103 33.9513V32.3926H57.1606V34.1576C57.1606 35.4107 56.8303 36.4499 56.1696 37.2751C55.5244 38.085 54.6179 38.49 53.4502 38.49H51.9283ZM59.3039 35.0745C59.7494 35.0745 60.1182 34.9293 60.4101 34.639C60.702 34.3333 60.848 33.9589 60.848 33.5158C60.848 33.0879 60.702 32.7364 60.4101 32.4613C60.1182 32.171 59.7494 32.0258 59.3039 32.0258H57.7829V33.5158C57.7829 33.9589 57.9211 34.3333 58.1977 34.639C58.4896 34.9293 58.8583 35.0745 59.3039 35.0745ZM65.411 38.49C64.228 38.49 63.3139 38.085 62.6686 37.2751C62.0233 36.4499 61.7006 35.4107 61.7006 34.1576V33.5158H64.3509V33.9513C64.3509 34.2569 64.4508 34.5167 64.6505 34.7307C64.8503 34.9293 65.1038 35.0287 65.411 35.0287H66.379C66.5326 35.0287 66.6094 35.1051 66.6094 35.2579V38.2607C66.6094 38.4136 66.5326 38.49 66.379 38.49H65.411Z" fill="white"/>
<path d="M66.1474 35.2579C66.1474 35.1051 66.2253 35.0287 66.379 35.0287H67.3458V33.5387C67.3458 32.6218 67.5532 31.7813 67.968 31.0172C68.3829 30.2531 68.9513 29.6495 69.6734 29.2063C70.4109 28.7479 71.2329 28.5186 72.1393 28.5186C73.0458 28.5186 73.8908 28.7479 74.6744 29.2063C75.458 29.6495 76.0725 30.2607 76.5181 31.0401C76.979 31.8042 77.2094 32.6371 77.2094 33.5387C77.2094 34.4403 76.979 35.2732 76.5181 36.0372C76.0725 36.7861 75.458 37.382 74.6744 37.8252C73.9062 38.2684 73.0612 38.49 72.1393 38.49H70.6644V39.384C70.6644 39.7966 70.8104 40.148 71.1023 40.4384C71.4096 40.744 71.7706 40.8968 72.1854 40.8968H77.9239V44.1519H72.1624C71.302 44.1519 70.5031 43.9379 69.7656 43.51C69.0282 43.0821 68.4366 42.5014 67.9911 41.7679C67.5609 41.0344 67.3458 40.2397 67.3458 39.384V38.49H66.379C66.2253 38.49 66.1474 38.4136 66.1474 38.2607V35.2579ZM73.3838 40.0487C73.3838 39.1318 73.5836 38.2913 73.983 37.5272C74.3825 36.7631 74.9433 36.1595 75.6654 35.7163C76.3875 35.2579 77.2094 35.0287 78.1313 35.0287H79.1453C79.2989 35.0287 79.3757 35.1051 79.3757 35.2579V38.2607C79.3757 38.4136 79.2989 38.49 79.1453 38.49H77.8778C77.4322 38.49 77.0712 38.6351 76.7946 38.9255C76.5334 39.2159 76.4028 39.5903 76.4028 40.0487V43.6705H73.3838V40.0487ZM72.1393 35.0287C72.5849 35.0287 72.9536 34.8911 73.2456 34.616C73.5528 34.3257 73.7065 33.9666 73.7065 33.5387C73.7065 33.0955 73.5528 32.7287 73.2456 32.4384C72.9536 32.148 72.5849 32.0029 72.1393 32.0029C71.7092 32.0029 71.3481 32.148 71.0562 32.4384C70.7643 32.7287 70.6183 33.0955 70.6183 33.5387V35.0287H72.1393Z" fill="white"/>
<path d="M78.9082 35.2579C78.9082 35.1051 78.985 35.0287 79.1386 35.0287H80.6366C80.9439 35.0287 81.1974 34.9293 81.3971 34.7307C81.5969 34.5167 81.6967 34.2569 81.6967 33.9513V29.9398H85.0153V33.9513C85.0153 34.2569 85.1152 34.5167 85.3149 34.7307C85.5147 34.9293 85.7682 35.0287 86.0754 35.0287H87.5734C87.7271 35.0287 87.8039 35.1051 87.8039 35.2579V38.2607C87.8039 38.4136 87.7271 38.49 87.5734 38.49H86.0754C84.9385 38.49 84.032 38.1156 83.356 37.3668C82.6493 38.1156 81.7428 38.49 80.6366 38.49H79.1386C78.985 38.49 78.9082 38.4136 78.9082 38.2607V35.2579ZM79.7839 40.4613H82.7338V43.3954H79.7839V40.4613ZM83.9322 40.4613H86.9051V43.3954H83.9322V40.4613Z" fill="white"/>
<path d="M94.9529 38.5358C94.0465 38.5358 93.2245 38.3142 92.4871 37.8711C91.7649 37.4126 91.1965 36.8013 90.7817 36.0372C90.3668 35.2732 90.1594 34.4327 90.1594 33.5158V32.0258H88.7306V28.7479H94.9529C95.8748 28.7479 96.7198 28.9542 97.488 29.3668C98.2562 29.7794 98.8631 30.3524 99.3086 31.086C99.7695 31.8042 100 32.6141 100 33.5158C100 34.4174 99.7695 35.2579 99.3086 36.0372C98.8631 36.8013 98.2485 37.4126 97.465 37.8711C96.6968 38.3142 95.8594 38.5358 94.9529 38.5358ZM87.5783 38.49C87.4246 38.49 87.3478 38.4136 87.3478 38.2607V35.2579C87.3478 35.1051 87.4246 35.0287 87.5783 35.0287H89.0993C89.3912 35.0287 89.637 34.9293 89.8368 34.7307C90.0519 34.5167 90.1594 34.2569 90.1594 33.9513V32.4842H92.8097V34.1576C92.8097 35.4107 92.4794 36.4499 91.8187 37.2751C91.1734 38.085 90.267 38.49 89.0993 38.49H87.5783ZM94.9529 35.0745C95.3985 35.0745 95.7672 34.9293 96.0592 34.639C96.3511 34.3333 96.497 33.9589 96.497 33.5158C96.497 33.0879 96.3511 32.7364 96.0592 32.4613C95.7672 32.171 95.3985 32.0258 94.9529 32.0258H93.4319V33.5158C93.4319 33.9589 93.5702 34.3333 93.8468 34.639C94.1387 34.9293 94.5074 35.0745 94.9529 35.0745Z" fill="white"/>
<g filter="url(#filter0_d_2071_9638)">
<path d="M136.941 53H150.009C151.513 52.9316 152.645 51.9592 153.093 50.9411C153.572 49.8699 153.64 49.3153 153.283 47.963C153.276 47.9326 153.268 47.9098 153.253 47.8794L135.733 17.3001C134.464 15.1197 131.737 13 128.47 13C125.325 13 122.597 14.9373 121.268 17.1785L108.451 39.3704C108.443 39.378 108.443 39.3856 108.436 39.3932C107.418 41.5052 108.314 43.4729 109.773 44.3998C111.285 45.3647 113.891 45.3647 115.099 43.4957L127.809 21.3495C127.992 21.0456 128.113 20.924 128.478 20.924C128.721 20.924 128.842 21.0456 129.025 21.3495L142.708 44.7493C142.837 44.9696 142.677 45.2507 142.419 45.2507H136.949" fill="white"/>
<path d="M136.941 53H150.009C151.513 52.9316 152.645 51.9592 153.093 50.9411C153.572 49.8699 153.64 49.3153 153.283 47.963C153.276 47.9326 153.268 47.9098 153.253 47.8794L135.733 17.3001C134.464 15.1197 131.737 13 128.47 13C125.325 13 122.597 14.9373 121.268 17.1785L108.451 39.3704C108.443 39.378 108.443 39.3856 108.436 39.3932C107.418 41.5052 108.314 43.4729 109.773 44.3998C111.285 45.3647 113.891 45.3647 115.099 43.4957L127.809 21.3495C127.992 21.0456 128.113 20.924 128.478 20.924C128.721 20.924 128.842 21.0456 129.025 21.3495L142.708 44.7493C142.837 44.9696 142.677 45.2507 142.419 45.2507H136.949" stroke="#B337AA" stroke-width="2" stroke-miterlimit="10"/>
<path d="M137.017 53H123.949C122.445 52.9316 121.313 51.9592 120.865 50.9411C120.386 49.8699 120.318 49.3153 120.675 47.963C120.682 47.9326 120.69 47.9098 120.705 47.8794L138.232 17.3001C139.501 15.1197 142.221 13 145.488 13C148.633 13 151.361 14.9373 152.69 17.1785L165.515 39.378C165.522 39.3856 165.522 39.3932 165.53 39.4008C166.548 41.5128 165.651 43.4805 164.193 44.4074C162.681 45.3723 160.075 45.3723 158.867 43.5033L146.156 21.3495C145.974 21.0456 145.853 20.924 145.488 20.924C145.245 20.924 145.123 21.0456 144.941 21.3495L131.258 44.7493C131.129 44.9696 131.288 45.2507 131.547 45.2507H137.017" fill="white"/>
<path d="M137.017 53H123.949C122.445 52.9316 121.313 51.9592 120.865 50.9411C120.386 49.8699 120.318 49.3153 120.675 47.963C120.682 47.9326 120.69 47.9098 120.705 47.8794L138.232 17.3001C139.501 15.1197 142.221 13 145.488 13C148.633 13 151.361 14.9373 152.69 17.1785L165.515 39.378C165.522 39.3856 165.522 39.3932 165.53 39.4008C166.548 41.5128 165.651 43.4805 164.193 44.4074C162.681 45.3723 160.075 45.3723 158.867 43.5033L146.156 21.3495C145.974 21.0456 145.853 20.924 145.488 20.924C145.245 20.924 145.123 21.0456 144.941 21.3495L131.258 44.7493C131.129 44.9696 131.288 45.2507 131.547 45.2507H137.017" stroke="#B337AA" stroke-width="2" stroke-miterlimit="10"/>
</g>
<defs>
<filter id="filter0_d_2071_9638" x="94.9983" y="0" width="83.969" height="66" filterUnits="userSpaceOnUse" color-interpolation-filters="sRGB">
<feFlood flood-opacity="0" result="BackgroundImageFix"/>
<feColorMatrix in="SourceAlpha" type="matrix" values="0 0 0 0 0 0 0 0 0 0 0 0 0 0 0 0 0 0 127 0" result="hardAlpha"/>
<feOffset/>
<feGaussianBlur stdDeviation="6"/>
<feComposite in2="hardAlpha" operator="out"/>
<feColorMatrix type="matrix" values="0 0 0 0 0.701961 0 0 0 0 0.215686 0 0 0 0 0.666667 0 0 0 0.4 0"/>
<feBlend mode="normal" in2="BackgroundImageFix" result="effect1_dropShadow_2071_9638"/>
<feBlend mode="normal" in="SourceGraphic" in2="effect1_dropShadow_2071_9638" result="shape"/>
</filter>
</defs>
</symbol>
</svg>
