<svg width="30" height="30" viewBox="0 0 30 30" fill="none" xmlns="http://www.w3.org/2000/svg">
<g clip-path="url(#clip0_3502_3564)">
<path d="M29.6025 11.526C28.5825 7.11596 25.4775 3.29096 21.3525 1.38596C19.68 0.613459 17.9325 0.103456 16.08 0.0359564C15.9825 0.0359564 15.8775 0.0284605 15.78 0.0284605C15.63 0.0284605 15.48 0.0134573 15.33 0.0134573C14.79 -0.00904273 14.25 -0.00904456 13.71 0.0584554C12.2625 0.185955 10.875 0.515955 9.5775 1.01845C9.525 1.03345 9.465 1.05596 9.4125 1.07846C8.9925 1.22096 8.6025 1.42346 8.205 1.61846C7.5675 1.94096 6.9375 2.28596 6.36 2.71346C6.195 2.83346 6.2325 2.83345 6.0525 2.70595C5.3325 2.16595 4.6125 1.63345 3.87 1.12345C3.375 0.785954 2.895 0.448454 2.355 0.185954C1.6875 -0.151546 0.907499 -0.00154915 0.412499 0.545951C0.119999 0.875951 0 1.26596 0 1.70096V15.3285C0 15.3285 -1.25868e-06 15.366 0.00749874 15.3885C0.0224987 16.431 0.15 17.451 0.39 18.471C1.6725 23.871 5.7975 28.1085 11.16 29.5335C12.2025 29.811 13.26 29.991 14.34 29.9985C15.1725 30.006 16.0125 29.9985 16.845 29.8935C17.4975 29.811 18.1425 29.691 18.7725 29.526C19.365 29.376 19.935 29.181 20.4975 28.956C20.55 28.9335 20.61 28.911 20.6625 28.8885C20.6775 28.881 20.685 28.881 20.7 28.8735C26.16 26.631 30 21.2685 30 14.9985V14.601C29.97 13.566 29.835 12.5385 29.6025 11.526ZM23.595 13.1535C22.3875 14.3535 21.1875 15.5535 19.98 16.7535C18.3 18.4335 16.6125 20.106 14.9325 21.786C14.3325 22.386 13.6125 22.6785 12.765 22.641C12.015 22.611 11.3475 22.3335 10.815 21.801C9.2625 20.2485 7.7025 18.6885 6.165 17.1135C4.725 15.636 5.19 13.221 7.05 12.3885C8.1525 11.901 9.4425 12.1335 10.29 12.981C11.1 13.7835 11.91 14.5935 12.7125 15.4035C12.75 15.441 12.795 15.4785 12.825 15.516C12.87 15.5685 12.915 15.576 12.96 15.5235C13.005 15.4785 13.05 15.441 13.095 15.396C15.2175 13.266 17.3475 11.136 19.47 9.00596C20.0325 8.44346 20.7075 8.14346 21.495 8.12096C23.16 8.06846 24.495 9.38096 24.4875 11.3685C24.48 11.871 24.1725 12.576 23.595 13.1535Z" fill="white" style="fill:white;fill-opacity:1;"/>
</g>
<defs>
<clipPath id="clip0_3502_3564">
<rect width="30" height="30" fill="white" style="fill:white;fill-opacity:1;"/>
</clipPath>
</defs>
</svg>
