<svg width="30" height="30" viewBox="0 0 30 30" fill="none" xmlns="http://www.w3.org/2000/svg">
<path d="M14.9818 19.2604L19.0335 23.867C20.5346 25.5737 21.2852 26.4271 22.0709 26.2193C22.8566 26.0115 23.126 24.8885 23.6648 22.6423L26.6536 10.1824C27.4835 6.72291 27.8984 4.99317 26.9761 4.14C26.0537 3.28683 24.455 3.92156 21.2576 5.19102L6.42345 11.0806C3.86616 12.0959 2.58751 12.6036 2.50633 13.4761C2.49803 13.5653 2.49789 13.6552 2.50592 13.7444C2.58442 14.6172 3.86152 15.1291 6.41569 16.1529C7.57298 16.6168 8.15162 16.8487 8.56651 17.293C8.61315 17.3429 8.658 17.3946 8.70097 17.448C9.08323 17.923 9.24636 18.5463 9.57261 19.793L10.1832 22.1262C10.5006 23.3394 10.6594 23.946 11.0751 24.0287C11.4908 24.1114 11.8528 23.6084 12.5767 22.6024L14.9818 19.2604ZM14.9818 19.2604L14.5845 18.8464C14.1324 18.3752 13.9064 18.1396 13.9064 17.8468C13.9064 17.5541 14.1324 17.3185 14.5845 16.8473L19.0507 12.1926" stroke="white" style="stroke:white;stroke-opacity:1;" stroke-width="2" stroke-linecap="round" stroke-linejoin="round"/>
</svg>
