<svg width="30" height="30" viewBox="0 0 30 30" fill="none" xmlns="http://www.w3.org/2000/svg">
<g clip-path="url(#clip0_3502_3566)">
<path d="M12.9473 0.890147L10.1811 0.156882C7.70028 -0.501738 5.15801 0.973572 4.49939 3.45438L3.80565 6.05813C6.03178 3.3007 9.26341 1.39509 12.9429 0.890147H12.9473Z" fill="white" style="fill:white;fill-opacity:1;"/>
<path d="M0.833067 17.2679L0.156882 19.8145C-0.501738 22.2953 0.973573 24.8376 3.45438 25.4962L6.10203 26.1988C3.349 24.0341 1.41265 20.8771 0.833067 17.2635V17.2679Z" fill="white" style="fill:white;fill-opacity:1;"/>
<path d="M26.5456 4.49939L23.5862 3.71344C26.5281 5.98348 28.5522 9.36879 29.0308 13.2415L29.8431 10.1811C30.5017 7.70029 29.0264 5.15801 26.5456 4.49939Z" fill="white" style="fill:white;fill-opacity:1;"/>
<path d="M16.9868 29.0923L19.8189 29.8431C22.2997 30.5017 24.842 29.0264 25.5006 26.5456L26.2997 23.5423C24.0956 26.4754 20.7849 28.5303 16.9912 29.0879L16.9868 29.0923Z" fill="white" style="fill:white;fill-opacity:1;"/>
<path d="M15.0022 1.99224C7.81887 1.99224 1.99227 7.81444 1.99227 15.0022C1.99227 22.1899 7.81448 28.0121 15.0022 28.0121C22.19 28.0121 28.0122 22.1899 28.0122 15.0022C28.0122 7.81444 22.19 1.99224 15.0022 1.99224ZM7.63445 8.48185C8.02085 6.46647 9.97036 5.14483 11.9857 5.53562C14.0011 5.92201 15.3228 7.87153 14.932 9.8869C14.5456 11.9023 12.5961 13.2239 10.5807 12.8331C8.56531 12.4467 7.24367 10.4972 7.63445 8.48185ZM13.0395 19.7223C12.6532 21.7377 10.7036 23.0593 8.68825 22.6685C6.67287 22.2821 5.35124 20.3326 5.74202 18.3173C6.12841 16.3019 8.07793 14.9802 10.0933 15.371C12.1087 15.7574 13.4303 17.7069 13.0395 19.7223ZM14.6158 16.7146C13.7201 16.5434 13.1317 15.674 13.3074 14.7783C13.4786 13.8825 14.348 13.2942 15.2437 13.4698C16.1394 13.6454 16.7278 14.5104 16.5522 15.4061C16.3809 16.3019 15.5116 16.8902 14.6158 16.7146ZM22.3656 21.5181C21.9792 23.5335 20.0297 24.8552 18.0143 24.4644C15.9989 24.078 14.6773 22.1285 15.0681 20.1131C15.4545 18.0977 17.404 16.7761 19.4194 17.1669C21.4348 17.5532 22.7564 19.5028 22.3656 21.5181ZM19.9068 14.6334C17.8914 14.247 16.5697 12.2975 16.9605 10.2821C17.3469 8.2667 19.2964 6.94506 21.3118 7.33585C23.3272 7.72224 24.6488 9.67176 24.258 11.6871C23.8717 13.7025 21.9221 15.0241 19.9068 14.6334Z" fill="white" style="fill:white;fill-opacity:1;"/>
</g>
<defs>
<clipPath id="clip0_3502_3566">
<rect width="30" height="30" fill="white" style="fill:white;fill-opacity:1;"/>
</clipPath>
</defs>
</svg>
