<svg width="30" height="30" viewBox="0 0 30 30" fill="none" xmlns="http://www.w3.org/2000/svg">
<path d="M15 27.5C21.9036 27.5 27.5 21.9036 27.5 15C27.5 8.09644 21.9036 2.5 15 2.5C8.09644 2.5 2.5 8.09644 2.5 15C2.5 16.7236 2.84884 18.3657 3.47978 19.8596C3.82847 20.6852 4.00282 21.098 4.02441 21.41C4.046 21.722 3.95417 22.0651 3.77052 22.7515L2.5 27.5L7.24847 26.2295C7.93485 26.0458 8.27805 25.954 8.59003 25.9756C8.90201 25.9972 9.31482 26.1715 10.1404 26.5202C11.6343 27.1512 13.2764 27.5 15 27.5Z" stroke="white" style="stroke:white;stroke-opacity:1;" stroke-width="2" stroke-linejoin="round"/>
<path d="M10.7352 15.4717L11.8239 14.1196C12.2827 13.5497 12.8499 13.0191 12.8943 12.2603C12.9055 12.0687 12.7707 11.2082 12.501 9.48733C12.395 8.81102 11.7636 8.75 11.2167 8.75C10.5039 8.75 10.1476 8.75 9.79369 8.91164C9.34642 9.11594 8.88723 9.69038 8.78647 10.1717C8.70674 10.5525 8.76599 10.8148 8.88448 11.3396C9.38778 13.5685 10.5685 15.7698 12.3994 17.6006C14.2302 19.4315 16.4315 20.6122 18.6604 21.1155C19.1852 21.234 19.4475 21.2933 19.8283 21.2135C20.3096 21.1128 20.8841 20.6536 21.0884 20.2063C21.25 19.8524 21.25 19.4961 21.25 18.7833C21.25 18.2364 21.189 17.605 20.5127 17.499C18.7918 17.2293 17.9313 17.0945 17.7397 17.1057C16.9809 17.1501 16.4503 17.7173 15.8804 18.1761L14.5283 19.2648" stroke="white" style="stroke:white;stroke-opacity:1;" stroke-width="2"/>
</svg>
