<svg width="1920" height="789" viewBox="0 0 1920 789" fill="none" xmlns="http://www.w3.org/2000/svg">
<g clip-path="url(#clip0_2068_5250)">
<path d="M894.816 -261.238H1026.16L971.436 800.49H949.544L894.816 -261.238Z" fill="url(#paint0_linear_2068_5250)"/>
<path d="M2022.22 734.816L2022.22 866.164L960.49 811.436L960.49 789.544L2022.22 734.816Z" fill="url(#paint1_linear_2068_5250)"/>
<path d="M-101.238 734.816L-101.238 866.164L960.49 811.436L960.49 789.544L-101.238 734.816Z" fill="url(#paint2_linear_2068_5250)"/>
<path d="M1171.85 -242.058L1298.72 -208.063L971.063 803.323L949.918 797.657L1171.85 -242.058Z" fill="url(#paint3_linear_2068_5250)"/>
<path d="M2003.04 1011.85L1969.04 1138.72L957.657 811.063L963.323 789.917L2003.04 1011.85Z" fill="url(#paint4_linear_2068_5250)"/>
<path d="M622.259 1809.04L749.131 1843.04L971.063 803.323L949.917 797.657L622.259 1809.04Z" fill="url(#paint5_linear_2068_5250)"/>
<path d="M-48.0627 462.259L-82.058 589.131L957.657 811.063L963.323 789.918L-48.0627 462.259Z" fill="url(#paint6_linear_2068_5250)"/>
<path d="M1434.48 -151.83L1548.23 -86.1563L969.969 805.963L951.011 795.017L1434.48 -151.83Z" fill="url(#paint7_linear_2068_5250)"/>
<path d="M1912.81 1274.48L1847.14 1388.23L955.017 809.969L965.963 791.011L1912.81 1274.48Z" fill="url(#paint8_linear_2068_5250)"/>
<path d="M372.751 1687.14L486.501 1752.81L969.969 805.963L951.011 795.017L372.751 1687.14Z" fill="url(#paint9_linear_2068_5250)"/>
<path d="M73.8436 212.751L8.16965 326.501L955.017 809.969L965.963 791.011L73.8436 212.751Z" fill="url(#paint10_linear_2068_5250)"/>
<path d="M1664.81 3.29692L1757.68 96.1738L968.23 808.23L952.75 792.751L1664.81 3.29692Z" fill="url(#paint11_linear_2068_5250)"/>
<path d="M1757.68 1504.81L1664.81 1597.68L952.75 808.23L968.23 792.751L1757.68 1504.81Z" fill="url(#paint12_linear_2068_5250)"/>
<path d="M163.297 1504.81L256.174 1597.68L968.23 808.23L952.751 792.75L163.297 1504.81Z" fill="url(#paint13_linear_2068_5250)"/>
<path d="M256.174 3.29688L163.297 96.1738L952.75 808.23L968.23 792.751L256.174 3.29688Z" fill="url(#paint14_linear_2068_5250)"/>
<path d="M1847.14 212.751L1912.81 326.502L965.963 809.969L955.017 791.011L1847.14 212.751Z" fill="url(#paint15_linear_2068_5250)"/>
<path d="M1548.23 1687.14L1434.48 1752.81L951.011 805.963L969.969 795.017L1548.23 1687.14Z" fill="url(#paint16_linear_2068_5250)"/>
<path d="M8.17019 1274.48L73.8441 1388.23L965.963 809.969L955.018 791.011L8.17019 1274.48Z" fill="url(#paint17_linear_2068_5250)"/>
<path d="M486.501 -151.83L372.751 -86.1562L951.011 805.963L969.969 795.017L486.501 -151.83Z" fill="url(#paint18_linear_2068_5250)"/>
<path d="M1969.04 462.259L2003.04 589.131L963.323 811.063L957.657 789.917L1969.04 462.259Z" fill="url(#paint19_linear_2068_5250)"/>
<path d="M1298.72 1809.04L1171.85 1843.04L949.917 803.323L971.063 797.657L1298.72 1809.04Z" fill="url(#paint20_linear_2068_5250)"/>
<path d="M-82.0577 1011.85L-48.0624 1138.72L963.323 811.063L957.657 789.917L-82.0577 1011.85Z" fill="url(#paint21_linear_2068_5250)"/>
<path d="M749.131 -242.058L622.259 -208.063L949.917 803.323L971.063 797.657L749.131 -242.058Z" fill="url(#paint22_linear_2068_5250)"/>
</g>
<defs>
<linearGradient id="paint0_linear_2068_5250" x1="960.796" y1="-49.2756" x2="960.796" y2="242.229" gradientUnits="userSpaceOnUse">
<stop stop-color="#150640" stop-opacity="0"/>
<stop offset="1" stop-color="#10062D"/>
</linearGradient>
<linearGradient id="paint1_linear_2068_5250" x1="1810.26" y1="800.797" x2="1518.75" y2="800.797" gradientUnits="userSpaceOnUse">
<stop stop-color="#150640" stop-opacity="0"/>
<stop offset="1" stop-color="#10062D"/>
</linearGradient>
<linearGradient id="paint2_linear_2068_5250" x1="110.724" y1="800.797" x2="402.229" y2="800.797" gradientUnits="userSpaceOnUse">
<stop stop-color="#150640" stop-opacity="0"/>
<stop offset="1" stop-color="#10062D"/>
</linearGradient>
<linearGradient id="paint3_linear_2068_5250" x1="1180.72" y1="-20.241" x2="1105.27" y2="261.331" gradientUnits="userSpaceOnUse">
<stop stop-color="#150640" stop-opacity="0"/>
<stop offset="1" stop-color="#10062D"/>
</linearGradient>
<linearGradient id="paint4_linear_2068_5250" x1="1781.22" y1="1020.72" x2="1499.65" y2="945.275" gradientUnits="userSpaceOnUse">
<stop stop-color="#150640" stop-opacity="0"/>
<stop offset="1" stop-color="#10062D"/>
</linearGradient>
<linearGradient id="paint5_linear_2068_5250" x1="740.851" y1="1621.38" x2="816.298" y2="1339.81" gradientUnits="userSpaceOnUse">
<stop stop-color="#150640" stop-opacity="0"/>
<stop offset="1" stop-color="#10062D"/>
</linearGradient>
<linearGradient id="paint6_linear_2068_5250" x1="139.6" y1="580.851" x2="421.172" y2="656.298" gradientUnits="userSpaceOnUse">
<stop stop-color="#150640" stop-opacity="0"/>
<stop offset="1" stop-color="#10062D"/>
</linearGradient>
<linearGradient id="paint7_linear_2068_5250" x1="1385.64" y1="64.7248" x2="1239.89" y2="317.175" gradientUnits="userSpaceOnUse">
<stop stop-color="#150640" stop-opacity="0"/>
<stop offset="1" stop-color="#10062D"/>
</linearGradient>
<linearGradient id="paint8_linear_2068_5250" x1="1696.26" y1="1225.64" x2="1443.8" y2="1079.89" gradientUnits="userSpaceOnUse">
<stop stop-color="#150640" stop-opacity="0"/>
<stop offset="1" stop-color="#10062D"/>
</linearGradient>
<linearGradient id="paint9_linear_2068_5250" x1="535.873" y1="1536.56" x2="681.625" y2="1284.11" gradientUnits="userSpaceOnUse">
<stop stop-color="#150640" stop-opacity="0"/>
<stop offset="1" stop-color="#10062D"/>
</linearGradient>
<linearGradient id="paint10_linear_2068_5250" x1="224.418" y1="375.873" x2="476.869" y2="521.625" gradientUnits="userSpaceOnUse">
<stop stop-color="#150640" stop-opacity="0"/>
<stop offset="1" stop-color="#10062D"/>
</linearGradient>
<linearGradient id="paint11_linear_2068_5250" x1="1561.58" y1="199.832" x2="1355.46" y2="405.957" gradientUnits="userSpaceOnUse">
<stop stop-color="#150640" stop-opacity="0"/>
<stop offset="1" stop-color="#10062D"/>
</linearGradient>
<linearGradient id="paint12_linear_2068_5250" x1="1561.15" y1="1401.58" x2="1355.02" y2="1195.46" gradientUnits="userSpaceOnUse">
<stop stop-color="#150640" stop-opacity="0"/>
<stop offset="1" stop-color="#10062D"/>
</linearGradient>
<linearGradient id="paint13_linear_2068_5250" x1="359.832" y1="1401.58" x2="565.957" y2="1195.46" gradientUnits="userSpaceOnUse">
<stop stop-color="#150640" stop-opacity="0"/>
<stop offset="1" stop-color="#10062D"/>
</linearGradient>
<linearGradient id="paint14_linear_2068_5250" x1="359.398" y1="199.832" x2="565.523" y2="405.957" gradientUnits="userSpaceOnUse">
<stop stop-color="#150640" stop-opacity="0"/>
<stop offset="1" stop-color="#10062D"/>
</linearGradient>
<linearGradient id="paint15_linear_2068_5250" x1="1696.56" y1="375.873" x2="1444.11" y2="521.625" gradientUnits="userSpaceOnUse">
<stop stop-color="#150640" stop-opacity="0"/>
<stop offset="1" stop-color="#10062D"/>
</linearGradient>
<linearGradient id="paint16_linear_2068_5250" x1="1385.11" y1="1536.56" x2="1239.35" y2="1284.11" gradientUnits="userSpaceOnUse">
<stop stop-color="#150640" stop-opacity="0"/>
<stop offset="1" stop-color="#10062D"/>
</linearGradient>
<linearGradient id="paint17_linear_2068_5250" x1="224.725" y1="1225.64" x2="477.176" y2="1079.89" gradientUnits="userSpaceOnUse">
<stop stop-color="#150640" stop-opacity="0"/>
<stop offset="1" stop-color="#10062D"/>
</linearGradient>
<linearGradient id="paint18_linear_2068_5250" x1="535.342" y1="64.7249" x2="681.094" y2="317.175" gradientUnits="userSpaceOnUse">
<stop stop-color="#150640" stop-opacity="0"/>
<stop offset="1" stop-color="#10062D"/>
</linearGradient>
<linearGradient id="paint19_linear_2068_5250" x1="1781.38" y1="580.851" x2="1499.81" y2="656.298" gradientUnits="userSpaceOnUse">
<stop stop-color="#150640" stop-opacity="0"/>
<stop offset="1" stop-color="#10062D"/>
</linearGradient>
<linearGradient id="paint20_linear_2068_5250" x1="1180.13" y1="1621.38" x2="1104.68" y2="1339.81" gradientUnits="userSpaceOnUse">
<stop stop-color="#150640" stop-opacity="0"/>
<stop offset="1" stop-color="#10062D"/>
</linearGradient>
<linearGradient id="paint21_linear_2068_5250" x1="139.759" y1="1020.72" x2="421.331" y2="945.275" gradientUnits="userSpaceOnUse">
<stop stop-color="#150640" stop-opacity="0"/>
<stop offset="1" stop-color="#10062D"/>
</linearGradient>
<linearGradient id="paint22_linear_2068_5250" x1="740.258" y1="-20.2411" x2="815.705" y2="261.331" gradientUnits="userSpaceOnUse">
<stop stop-color="#150640" stop-opacity="0"/>
<stop offset="1" stop-color="#10062D"/>
</linearGradient>
<clipPath id="clip0_2068_5250">
<rect width="1920" height="789" fill="white"/>
</clipPath>
</defs>
</svg>
