<svg width="469" height="347" viewBox="0 0 469 347" fill="none" xmlns="http://www.w3.org/2000/svg">
<path d="M234.373 4C307.019 4.02734 379.04 16.5396 447.309 40.9131C461.673 46.0416 468.5 62.3472 462.556 76.6836L359.996 324.023C354.108 338.223 337.659 345.111 322.426 340.589C293.859 332.108 264.163 327.771 234.251 327.76C204.339 327.749 174.64 332.063 146.066 340.522C130.83 345.033 114.386 338.132 108.509 323.929L6.13477 76.5127C0.200824 62.1717 7.04101 45.8706 21.4092 40.7529C89.6962 16.4306 161.727 3.97271 234.373 4Z" stroke="#FD990F" stroke-width="8"/>
<path d="M231.233 283.431L221.486 311.534C221.38 311.823 221.364 312.127 221.44 312.422C221.516 312.716 221.681 312.994 221.922 313.232C222.164 313.471 222.475 313.664 222.832 313.797C223.189 313.931 223.582 314 223.981 314H244.546C244.945 314 245.338 313.931 245.695 313.797C246.052 313.664 246.363 313.471 246.605 313.232C246.846 312.994 247.011 312.716 247.087 312.422C247.163 312.127 247.147 311.823 247.042 311.534L236.759 283.431C236.061 281.523 231.931 281.523 231.233 283.431Z" fill="#E4670D"/>
<path d="M231.103 283.153L221.175 311.983C221.127 312.122 221.122 312.266 221.159 312.406C221.197 312.546 221.277 312.678 221.393 312.791C221.509 312.904 221.658 312.996 221.829 313.059C221.999 313.122 222.186 313.154 222.376 313.154H242.233C242.422 313.154 242.609 313.121 242.78 313.058C242.95 312.995 243.098 312.903 243.214 312.79C243.33 312.677 243.41 312.546 243.448 312.406C243.486 312.266 243.481 312.122 243.434 311.983L233.506 283.153C233.436 282.953 233.281 282.775 233.064 282.649C232.846 282.522 232.579 282.454 232.304 282.454C232.03 282.454 231.763 282.522 231.545 282.649C231.328 282.775 231.173 282.953 231.103 283.153Z" fill="#F1920E"/>
<path d="M234.135 346.117C245.18 346.117 254.135 337.163 254.135 326.117C254.135 315.071 245.18 306.117 234.135 306.117C223.089 306.117 214.135 315.071 214.135 326.117C214.135 337.163 223.089 346.117 234.135 346.117Z" fill="url(#paint0_linear_2221_442)"/>
<path d="M234.134 344.473C244.272 344.473 252.491 336.255 252.491 326.117C252.491 315.979 244.272 307.76 234.134 307.76C223.996 307.76 215.778 315.979 215.778 326.117C215.778 336.255 223.996 344.473 234.134 344.473Z" fill="url(#paint1_linear_2221_442)"/>
<defs>
<linearGradient id="paint0_linear_2221_442" x1="219.993" y1="311.976" x2="248.278" y2="340.262" gradientUnits="userSpaceOnUse">
<stop stop-color="white"/>
<stop offset="1" stop-color="#999999"/>
</linearGradient>
<linearGradient id="paint1_linear_2221_442" x1="221.154" y1="313.138" x2="247.116" y2="339.1" gradientUnits="userSpaceOnUse">
<stop stop-color="#F2F2F2"/>
<stop offset="1" stop-color="#B3B3B3"/>
</linearGradient>
</defs>
</svg>
