<svg width="469" height="346" viewBox="0 0 469 346" fill="none" xmlns="http://www.w3.org/2000/svg">
<mask id="path-1-inside-1_2068_5318" fill="white">
<path d="M466.258 78.0818C473.018 61.7526 465.284 42.9544 448.636 37.0217C379.923 12.5341 307.44 -0.0148742 234.336 1.67428e-05C161.231 0.0149076 88.7541 12.5934 20.0504 37.109C3.40529 43.0485 -4.32095 61.8498 2.44563 78.1763L104.963 325.533C111.73 341.86 130.42 349.435 147.363 344.408C175.563 336.042 204.877 331.766 234.404 331.76C263.93 331.754 293.245 336.018 321.449 344.373C338.394 349.393 357.081 341.81 363.841 325.481L466.258 78.0818Z"/>
</mask>
<path d="M466.258 78.0818C473.018 61.7526 465.284 42.9544 448.636 37.0217C379.923 12.5341 307.44 -0.0148742 234.336 1.67428e-05C161.231 0.0149076 88.7541 12.5934 20.0504 37.109C3.40529 43.0485 -4.32095 61.8498 2.44563 78.1763L104.963 325.533C111.73 341.86 130.42 349.435 147.363 344.408C175.563 336.042 204.877 331.766 234.404 331.76C263.93 331.754 293.245 336.018 321.449 344.373C338.394 349.393 357.081 341.81 363.841 325.481L466.258 78.0818Z" fill="url(#paint0_radial_2068_5318)" stroke="url(#paint1_linear_2068_5318)" stroke-opacity="0.5" stroke-width="2" mask="url(#path-1-inside-1_2068_5318)"/>
<defs>
<radialGradient id="paint0_radial_2068_5318" cx="0" cy="0" r="1" gradientTransform="matrix(-0.0379091 220.5 229.521 0.0438676 234.576 -1.50008)" gradientUnits="userSpaceOnUse">
<stop stop-color="#28106B"/>
<stop offset="1" stop-color="#10062D"/>
</radialGradient>
<linearGradient id="paint1_linear_2068_5318" x1="234.545" y1="176" x2="234.518" y2="337.5" gradientUnits="userSpaceOnUse">
<stop stop-color="#B337AA" stop-opacity="0"/>
<stop offset="1" stop-color="#B337AA"/>
</linearGradient>
</defs>
</svg>
